<svg width="333" height="273" viewBox="0 0 333 273" fill="none" xmlns="http://www.w3.org/2000/svg">
<g clip-path="url(#clip0)">
<path d="M10.3181 270.375C1.61539 257.621 0 256.312 0 251.625C0 245.205 5.14871 240 11.5 240C17.8513 240 23 245.205 23 251.625C23 256.312 21.3846 257.621 12.6819 270.375C12.1108 271.209 10.8892 271.208 10.3181 270.375ZM11.5 256.469C14.1464 256.469 16.2917 254.3 16.2917 251.625C16.2917 248.95 14.1464 246.781 11.5 246.781C8.85362 246.781 6.70833 248.95 6.70833 251.625C6.70833 254.3 8.85362 256.469 11.5 256.469Z" fill="white"/>
</g>
<g clip-path="url(#clip1)">
<path d="M320.318 30.3746C311.615 17.621 310 16.3121 310 11.625C310 5.20467 315.149 0 321.5 0C327.851 0 333 5.20467 333 11.625C333 16.3121 331.385 17.621 322.682 30.3746C322.111 31.2085 320.889 31.2085 320.318 30.3746ZM321.5 16.4688C324.146 16.4688 326.292 14.3001 326.292 11.625C326.292 8.94986 324.146 6.78125 321.5 6.78125C318.854 6.78125 316.708 8.94986 316.708 11.625C316.708 14.3001 318.854 16.4688 321.5 16.4688Z" fill="white"/>
</g>
<path d="M310 39L207.559 117.463L248.758 158.738H141.864L117.738 122.776L58.7236 137.488L114.027 200.422L93.6128 225.759L102.892 241.697L25.5 272" stroke="white" stroke-dasharray="12 12"/>
<defs>
<clipPath id="clip0">
<rect width="23" height="31" fill="white" transform="translate(0 240)"/>
</clipPath>
<clipPath id="clip1">
<rect width="23" height="31" fill="white" transform="translate(310)"/>
</clipPath>
</defs>
</svg>
